<?xml version="1.0" encoding="UTF-8" standalone="no"?>
<!DOCTYPE svg PUBLIC "-//W3C//DTD SVG 1.1//EN" "http://www.w3.org/Graphics/SVG/1.1/DTD/svg11.dtd">
<svg width="100%" height="100%" viewBox="0 0 256 256" version="1.1" xmlns="http://www.w3.org/2000/svg" xmlns:xlink="http://www.w3.org/1999/xlink" xml:space="preserve" xmlns:serif="http://www.serif.com/" style="fill-rule:evenodd;clip-rule:evenodd;stroke-linejoin:round;stroke-miterlimit:2;">
    <g id="arrowpoint">
        <g id="button-or-background-idk" serif:id="button or background idk" transform="matrix(1.189613,0,0,0.594806,-24.270405,-12.135203)">
            <path d="M128,235.598L74.201,235.598C44.508,235.598 20.402,187.385 20.402,128C20.402,68.615 44.508,20.402 74.201,20.402L181.799,20.402C211.492,20.402 235.598,68.615 235.598,128L235.598,343.196C235.598,402.581 211.492,450.794 181.799,450.794C152.107,450.794 128,402.581 128,343.196L128,235.598Z" style="fill:rgb(93,64,53);"/>
            <path d="M128,235.598L74.201,235.598C44.508,235.598 20.402,187.385 20.402,128C20.402,68.615 44.508,20.402 74.201,20.402L181.799,20.402C211.492,20.402 235.598,68.615 235.598,128L235.598,343.196C235.598,402.581 211.492,450.794 181.799,450.794C152.107,450.794 128,402.581 128,343.196L128,235.598ZM131.503,235.598L131.503,343.196C131.503,398.715 154.04,443.789 181.799,443.789C209.558,443.789 232.096,398.715 232.096,343.196L232.096,128C232.096,72.481 209.558,27.407 181.799,27.407L74.201,27.407C46.442,27.407 23.904,72.481 23.904,128C23.904,183.519 46.442,228.593 74.201,228.593L128,228.593C129.934,228.593 131.503,231.729 131.503,235.598Z" style="fill:rgb(255,181,153);"/>
        </g>
        <g id="probably-material" serif:id="probably material">
            <path d="M256,64C256,99.323 227.323,128 192,128L64,128C28.677,128 0,99.323 0,64C0,28.677 28.677,0 64,0L192,0C227.323,0 256,28.677 256,64Z" style="fill:rgb(93,64,53);"/>
            <path d="M256,64C256,99.323 227.323,128 192,128L64,128C28.677,128 0,99.323 0,64C0,28.677 28.677,0 64,0L192,0C227.323,0 256,28.677 256,64ZM251.833,64C251.833,30.977 225.023,4.167 192,4.167L64,4.167C30.977,4.167 4.167,30.977 4.167,64C4.167,97.023 30.977,123.833 64,123.833L192,123.833C225.023,123.833 251.833,97.023 251.833,64Z" style="fill:rgb(255,181,153);"/>
        </g>
        <g id="probably-material1" serif:id="probably material" transform="matrix(0,-0.384921,0.769842,0,143.155413,239.996784)">
            <path d="M256,64C256,99.323 198.645,128 128,128C57.355,128 0,99.323 0,64C0,28.677 57.355,0 128,0C198.645,0 256,28.677 256,64Z" style="fill:rgb(50,40,36);"/>
        </g>
        <g id="probably-material2" serif:id="probably material" transform="matrix(0.875131,0,0,0.772135,15.983274,14.583376)">
            <path d="M256,64C256,99.323 230.698,128 199.532,128L56.468,128C25.302,128 0,99.323 0,64C0,28.677 25.302,0 56.468,0L199.532,0C230.698,0 256,28.677 256,64Z" style="fill:rgb(231,190,175);"/>
        </g>
        <g>
            <g>
                <g transform="matrix(45.833333,0,0,45.833333,37.250895,82.004354)">
                    <path d="M0.793,0.041C0.776,0.041 0.761,0.031 0.75,0.013C0.74,-0.002 0.731,-0.028 0.724,-0.065L0.706,-0.149C0.693,-0.201 0.672,-0.316 0.643,-0.494L0.545,-0.199L0.516,-0.106C0.504,-0.07 0.492,-0.04 0.479,-0.016C0.466,0.009 0.447,0.021 0.424,0.021C0.405,0.021 0.39,0.011 0.379,-0.01C0.372,-0.024 0.365,-0.041 0.359,-0.062L0.345,-0.117C0.312,-0.232 0.283,-0.355 0.258,-0.486L0.241,-0.398L0.178,-0.141C0.175,-0.11 0.167,-0.066 0.153,-0.006C0.144,0.019 0.127,0.032 0.105,0.032C0.089,0.032 0.076,0.026 0.067,0.015C0.059,0.005 0.055,-0.007 0.055,-0.021C0.055,-0.076 0.066,-0.143 0.088,-0.222L0.142,-0.418L0.17,-0.572C0.185,-0.644 0.2,-0.691 0.216,-0.713C0.229,-0.732 0.245,-0.742 0.264,-0.742C0.285,-0.742 0.301,-0.73 0.312,-0.706C0.324,-0.677 0.338,-0.618 0.353,-0.528C0.37,-0.421 0.397,-0.305 0.433,-0.181C0.481,-0.306 0.523,-0.437 0.558,-0.572L0.573,-0.644C0.579,-0.672 0.586,-0.695 0.596,-0.713C0.608,-0.737 0.626,-0.749 0.648,-0.749C0.676,-0.749 0.697,-0.722 0.712,-0.668C0.717,-0.649 0.723,-0.611 0.731,-0.553C0.75,-0.406 0.774,-0.28 0.803,-0.176L0.827,-0.092C0.839,-0.047 0.845,-0.019 0.845,-0.009C0.845,0.005 0.84,0.017 0.829,0.026C0.819,0.036 0.807,0.041 0.793,0.041Z" style="fill:rgb(39,30,26);fill-rule:nonzero;"/>
                </g>
                <g transform="matrix(45.833333,0,0,45.833333,77.713135,82.004354)">
                    <path d="M0.449,0.032C0.443,0.032 0.432,0.025 0.416,0.011C0.401,-0.003 0.39,-0.014 0.383,-0.025C0.352,-0.008 0.324,0.005 0.3,0.013C0.277,0.022 0.257,0.026 0.241,0.026C0.165,0.026 0.109,0.005 0.074,-0.038C0.041,-0.078 0.025,-0.14 0.025,-0.224C0.025,-0.302 0.052,-0.37 0.106,-0.426C0.16,-0.482 0.225,-0.51 0.3,-0.51C0.329,-0.51 0.36,-0.502 0.396,-0.488C0.44,-0.47 0.462,-0.448 0.462,-0.422C0.462,-0.413 0.459,-0.405 0.452,-0.398C0.449,-0.386 0.446,-0.366 0.445,-0.337C0.443,-0.309 0.442,-0.273 0.441,-0.229C0.441,-0.188 0.444,-0.156 0.45,-0.133C0.453,-0.118 0.463,-0.09 0.48,-0.047C0.483,-0.041 0.486,-0.032 0.492,-0.021L0.495,-0.013C0.495,0 0.49,0.011 0.481,0.02C0.472,0.028 0.461,0.032 0.449,0.032ZM0.348,-0.307C0.348,-0.321 0.349,-0.336 0.35,-0.353C0.352,-0.369 0.355,-0.387 0.358,-0.405C0.346,-0.411 0.336,-0.416 0.327,-0.419C0.319,-0.422 0.312,-0.423 0.307,-0.423C0.256,-0.423 0.213,-0.403 0.176,-0.362C0.139,-0.32 0.121,-0.273 0.121,-0.219C0.121,-0.166 0.131,-0.126 0.149,-0.099C0.168,-0.072 0.197,-0.059 0.234,-0.059C0.266,-0.059 0.292,-0.065 0.314,-0.076C0.326,-0.082 0.342,-0.095 0.363,-0.113C0.353,-0.2 0.348,-0.264 0.348,-0.307Z" style="fill:rgb(39,30,26);fill-rule:nonzero;"/>
                </g>
                <g transform="matrix(45.833333,0,0,45.833333,101.166911,82.004354)">
                    <path d="M0.395,-0.416C0.388,-0.416 0.38,-0.416 0.37,-0.417C0.361,-0.418 0.353,-0.418 0.346,-0.418C0.339,-0.418 0.317,-0.416 0.28,-0.411L0.289,-0.122L0.29,-0.076C0.291,-0.004 0.274,0.031 0.239,0.031C0.226,0.031 0.214,0.027 0.205,0.019C0.195,0.01 0.19,-0 0.19,-0.013C0.19,-0.026 0.191,-0.044 0.192,-0.069C0.193,-0.094 0.193,-0.112 0.193,-0.125L0.184,-0.41C0.16,-0.411 0.124,-0.413 0.075,-0.418C0.046,-0.422 0.032,-0.438 0.032,-0.466C0.032,-0.481 0.036,-0.493 0.045,-0.502C0.054,-0.511 0.065,-0.516 0.079,-0.516L0.181,-0.508C0.181,-0.524 0.18,-0.547 0.179,-0.574C0.177,-0.602 0.177,-0.622 0.177,-0.635C0.177,-0.648 0.181,-0.66 0.191,-0.669C0.2,-0.678 0.212,-0.682 0.226,-0.682C0.255,-0.682 0.272,-0.658 0.277,-0.61C0.278,-0.598 0.278,-0.584 0.278,-0.567L0.277,-0.539L0.277,-0.508C0.317,-0.514 0.34,-0.516 0.346,-0.516C0.38,-0.516 0.402,-0.514 0.413,-0.511C0.432,-0.505 0.442,-0.489 0.442,-0.465C0.442,-0.451 0.438,-0.439 0.429,-0.43C0.42,-0.421 0.409,-0.416 0.395,-0.416Z" style="fill:rgb(39,30,26);fill-rule:nonzero;"/>
                </g>
                <g transform="matrix(45.833333,0,0,45.833333,122.763184,82.004354)">
                    <path d="M0.296,0.022C0.222,0.022 0.163,0.004 0.117,-0.033C0.067,-0.073 0.042,-0.13 0.042,-0.204C0.042,-0.288 0.063,-0.359 0.104,-0.417C0.149,-0.479 0.208,-0.51 0.283,-0.51C0.337,-0.51 0.381,-0.501 0.415,-0.483C0.457,-0.46 0.478,-0.426 0.478,-0.379C0.478,-0.347 0.46,-0.317 0.423,-0.291C0.407,-0.279 0.372,-0.261 0.319,-0.236L0.133,-0.147C0.151,-0.12 0.174,-0.1 0.201,-0.086C0.228,-0.073 0.26,-0.066 0.296,-0.066C0.318,-0.066 0.345,-0.07 0.375,-0.079C0.413,-0.089 0.438,-0.103 0.449,-0.121C0.46,-0.138 0.472,-0.147 0.485,-0.147C0.496,-0.147 0.506,-0.143 0.515,-0.134C0.524,-0.125 0.529,-0.115 0.529,-0.104C0.529,-0.068 0.5,-0.037 0.441,-0.011C0.392,0.011 0.343,0.022 0.296,0.022ZM0.283,-0.422C0.243,-0.422 0.21,-0.407 0.184,-0.376C0.157,-0.345 0.138,-0.299 0.125,-0.237L0.274,-0.309C0.333,-0.337 0.375,-0.362 0.4,-0.383C0.372,-0.409 0.333,-0.422 0.283,-0.422Z" style="fill:rgb(39,30,26);fill-rule:nonzero;"/>
                </g>
                <g transform="matrix(45.833333,0,0,45.833333,147.873047,82.004354)">
                    <path d="M0.448,-0.361C0.445,-0.32 0.429,-0.3 0.399,-0.3C0.371,-0.3 0.357,-0.316 0.357,-0.348C0.357,-0.354 0.356,-0.366 0.355,-0.382L0.354,-0.423C0.303,-0.417 0.261,-0.403 0.23,-0.38C0.201,-0.359 0.177,-0.327 0.158,-0.284L0.159,-0.017C0.159,0.016 0.143,0.033 0.111,0.033C0.082,0.033 0.068,0.016 0.068,-0.017L0.068,-0.359C0.068,-0.37 0.068,-0.386 0.069,-0.408C0.07,-0.429 0.07,-0.445 0.07,-0.456C0.07,-0.489 0.085,-0.505 0.113,-0.505C0.145,-0.505 0.161,-0.478 0.162,-0.424C0.224,-0.485 0.293,-0.515 0.37,-0.515C0.396,-0.515 0.416,-0.505 0.429,-0.485C0.442,-0.465 0.448,-0.435 0.448,-0.395C0.448,-0.378 0.448,-0.367 0.448,-0.361Z" style="fill:rgb(39,30,26);fill-rule:nonzero;"/>
                </g>
                <g transform="matrix(45.833333,0,0,45.833333,169.894531,82.004354)">
                    <path d="M0.161,-0.618C0.146,-0.618 0.132,-0.624 0.121,-0.635C0.109,-0.646 0.104,-0.659 0.104,-0.675C0.104,-0.69 0.109,-0.704 0.121,-0.715C0.132,-0.726 0.146,-0.731 0.161,-0.731C0.177,-0.731 0.19,-0.726 0.201,-0.715C0.213,-0.704 0.218,-0.69 0.218,-0.675C0.218,-0.659 0.213,-0.646 0.201,-0.635C0.19,-0.624 0.177,-0.618 0.161,-0.618ZM0.183,-0.222C0.183,-0.202 0.184,-0.173 0.185,-0.134C0.186,-0.095 0.187,-0.066 0.187,-0.046C0.187,-0.032 0.182,-0.02 0.173,-0.011C0.165,-0.002 0.153,0.002 0.139,0.002C0.125,0.002 0.113,-0.002 0.104,-0.011C0.095,-0.02 0.091,-0.032 0.091,-0.046C0.091,-0.066 0.09,-0.095 0.089,-0.134C0.088,-0.173 0.087,-0.202 0.087,-0.222C0.087,-0.252 0.089,-0.29 0.092,-0.336C0.096,-0.382 0.097,-0.42 0.097,-0.451C0.097,-0.465 0.102,-0.477 0.111,-0.486C0.12,-0.495 0.131,-0.5 0.145,-0.5C0.159,-0.5 0.17,-0.495 0.179,-0.486C0.188,-0.477 0.193,-0.465 0.193,-0.451C0.193,-0.42 0.191,-0.382 0.188,-0.336C0.185,-0.29 0.183,-0.252 0.183,-0.222Z" style="fill:rgb(39,30,26);fill-rule:nonzero;"/>
                </g>
                <g transform="matrix(45.833333,0,0,45.833333,182.740397,82.004354)">
                    <path d="M0.449,0.032C0.443,0.032 0.432,0.025 0.416,0.011C0.401,-0.003 0.39,-0.014 0.383,-0.025C0.352,-0.008 0.324,0.005 0.3,0.013C0.277,0.022 0.257,0.026 0.241,0.026C0.165,0.026 0.109,0.005 0.074,-0.038C0.041,-0.078 0.025,-0.14 0.025,-0.224C0.025,-0.302 0.052,-0.37 0.106,-0.426C0.16,-0.482 0.225,-0.51 0.3,-0.51C0.329,-0.51 0.36,-0.502 0.396,-0.488C0.44,-0.47 0.462,-0.448 0.462,-0.422C0.462,-0.413 0.459,-0.405 0.452,-0.398C0.449,-0.386 0.446,-0.366 0.445,-0.337C0.443,-0.309 0.442,-0.273 0.441,-0.229C0.441,-0.188 0.444,-0.156 0.45,-0.133C0.453,-0.118 0.463,-0.09 0.48,-0.047C0.483,-0.041 0.486,-0.032 0.492,-0.021L0.495,-0.013C0.495,0 0.49,0.011 0.481,0.02C0.472,0.028 0.461,0.032 0.449,0.032ZM0.348,-0.307C0.348,-0.321 0.349,-0.336 0.35,-0.353C0.352,-0.369 0.355,-0.387 0.358,-0.405C0.346,-0.411 0.336,-0.416 0.327,-0.419C0.319,-0.422 0.312,-0.423 0.307,-0.423C0.256,-0.423 0.213,-0.403 0.176,-0.362C0.139,-0.32 0.121,-0.273 0.121,-0.219C0.121,-0.166 0.131,-0.126 0.149,-0.099C0.168,-0.072 0.197,-0.059 0.234,-0.059C0.266,-0.059 0.292,-0.065 0.314,-0.076C0.326,-0.082 0.342,-0.095 0.363,-0.113C0.353,-0.2 0.348,-0.264 0.348,-0.307Z" style="fill:rgb(39,30,26);fill-rule:nonzero;"/>
                </g>
                <g transform="matrix(45.833333,0,0,45.833333,206.194173,82.004354)">
                    <path d="M0.192,-0.384L0.185,-0.141C0.185,-0.115 0.183,-0.078 0.181,-0.028C0.177,0.005 0.161,0.021 0.133,0.021C0.101,0.021 0.085,0.004 0.085,-0.029C0.085,-0.068 0.087,-0.127 0.09,-0.206C0.094,-0.285 0.096,-0.344 0.096,-0.384C0.096,-0.435 0.097,-0.494 0.098,-0.56C0.1,-0.627 0.101,-0.685 0.101,-0.737C0.101,-0.769 0.117,-0.786 0.148,-0.786C0.181,-0.786 0.197,-0.769 0.197,-0.737C0.197,-0.685 0.196,-0.627 0.194,-0.56C0.193,-0.494 0.192,-0.435 0.192,-0.384Z" style="fill:rgb(39,30,26);fill-rule:nonzero;"/>
                </g>
            </g>
        </g>
        <g transform="matrix(0.661444,0.661444,-0.661444,0.661444,130.578276,21.077368)">
            <g transform="matrix(1.069035,0,0,1.069035,-9.509956,-3.054962)">
                <g transform="matrix(41.666667,0,0,41.666667,144.990551,91.28647)">
                    <path d="M0.688,0.041C0.661,0.041 0.646,0.026 0.641,-0.002C0.635,-0.038 0.629,-0.088 0.624,-0.153L0.607,-0.305C0.604,-0.327 0.598,-0.349 0.59,-0.371C0.579,-0.4 0.567,-0.415 0.554,-0.415C0.542,-0.415 0.52,-0.404 0.487,-0.384C0.456,-0.365 0.435,-0.35 0.425,-0.338C0.425,-0.308 0.426,-0.277 0.428,-0.247L0.442,-0.116C0.449,-0.065 0.452,-0.022 0.452,0.011C0.452,0.026 0.447,0.037 0.438,0.047C0.429,0.056 0.418,0.061 0.404,0.061C0.39,0.061 0.378,0.056 0.369,0.047C0.36,0.037 0.356,0.026 0.356,0.011C0.356,-0.028 0.352,-0.086 0.344,-0.163C0.336,-0.24 0.332,-0.299 0.332,-0.338C0.332,-0.372 0.327,-0.399 0.317,-0.418C0.295,-0.408 0.271,-0.391 0.248,-0.368L0.19,-0.303C0.185,-0.295 0.177,-0.285 0.166,-0.272C0.166,-0.253 0.164,-0.224 0.16,-0.186C0.157,-0.148 0.155,-0.12 0.155,-0.102C0.155,-0.092 0.156,-0.078 0.159,-0.061C0.163,-0.043 0.164,-0.03 0.164,-0.022C0.164,-0.009 0.159,0.002 0.149,0.011C0.139,0.02 0.128,0.025 0.114,0.025C0.077,0.025 0.059,-0.017 0.059,-0.101C0.059,-0.12 0.061,-0.149 0.064,-0.188C0.068,-0.227 0.07,-0.256 0.07,-0.275C0.07,-0.293 0.068,-0.319 0.065,-0.353C0.062,-0.388 0.061,-0.414 0.061,-0.431C0.061,-0.505 0.077,-0.542 0.11,-0.542C0.123,-0.542 0.135,-0.536 0.145,-0.525C0.156,-0.514 0.161,-0.502 0.161,-0.489C0.161,-0.483 0.16,-0.473 0.159,-0.46C0.157,-0.447 0.156,-0.438 0.156,-0.431L0.157,-0.379C0.174,-0.414 0.199,-0.446 0.232,-0.474C0.265,-0.502 0.293,-0.516 0.316,-0.516C0.367,-0.516 0.402,-0.491 0.421,-0.44C0.439,-0.464 0.461,-0.482 0.485,-0.493C0.51,-0.505 0.538,-0.511 0.57,-0.511C0.625,-0.511 0.662,-0.482 0.682,-0.423C0.686,-0.412 0.692,-0.366 0.702,-0.286C0.711,-0.23 0.722,-0.137 0.737,-0.006C0.738,0.007 0.733,0.018 0.724,0.027C0.714,0.036 0.702,0.041 0.688,0.041Z" style="fill:rgb(241,223,217);fill-rule:nonzero;"/>
                </g>
                <g transform="matrix(41.666667,0,0,41.666667,177.359529,91.28647)">
                    <path d="M0.296,0.022C0.222,0.022 0.163,0.004 0.117,-0.033C0.067,-0.073 0.042,-0.13 0.042,-0.204C0.042,-0.288 0.063,-0.359 0.104,-0.417C0.149,-0.479 0.208,-0.51 0.283,-0.51C0.337,-0.51 0.381,-0.501 0.415,-0.483C0.457,-0.46 0.478,-0.426 0.478,-0.379C0.478,-0.347 0.46,-0.317 0.423,-0.291C0.407,-0.279 0.372,-0.261 0.319,-0.236L0.133,-0.147C0.151,-0.12 0.174,-0.1 0.201,-0.086C0.228,-0.073 0.26,-0.066 0.296,-0.066C0.318,-0.066 0.345,-0.07 0.375,-0.079C0.413,-0.089 0.438,-0.103 0.449,-0.121C0.46,-0.138 0.472,-0.147 0.485,-0.147C0.496,-0.147 0.506,-0.143 0.515,-0.134C0.524,-0.125 0.529,-0.115 0.529,-0.104C0.529,-0.068 0.5,-0.037 0.441,-0.011C0.392,0.011 0.343,0.022 0.296,0.022ZM0.283,-0.422C0.243,-0.422 0.21,-0.407 0.184,-0.376C0.157,-0.345 0.138,-0.299 0.125,-0.237L0.274,-0.309C0.333,-0.337 0.375,-0.362 0.4,-0.383C0.372,-0.409 0.333,-0.422 0.283,-0.422Z" style="fill:rgb(241,223,217);fill-rule:nonzero;"/>
                </g>
            </g>
        </g>
    </g>
    <g id="arrowtail">
        <g transform="matrix(0.529825,0.529825,-0.707107,0.707107,165.855671,22.326667)">
            <path d="M128,175.954L128,208.046C128,234.512 99.323,256 64,256C28.677,256 0,234.512 0,208.046L0,175.954C0,149.488 28.677,128 64,128C99.323,128 128,149.488 128,175.954Z" style="fill:rgb(93,64,53);"/>
            <path d="M128,175.954L128,208.046C128,234.512 99.323,256 64,256C28.677,256 0,234.512 0,208.046L0,175.954C0,149.488 28.677,128 64,128C99.323,128 128,149.488 128,175.954ZM123.551,175.954C123.551,151.327 96.867,131.333 64,131.333C31.133,131.333 4.449,151.327 4.449,175.954L4.449,208.046C4.449,232.673 31.133,252.667 64,252.667C96.867,252.667 123.551,232.673 123.551,208.046L123.551,175.954Z" style="fill:rgb(255,181,153);"/>
        </g>
        <g id="probably-material3" serif:id="probably material" transform="matrix(0.274275,-0.274275,0.37787,0.37787,4.709071,202.92352)">
            <path d="M256,64C256,99.323 216.491,128 167.827,128L88.173,128C39.509,128 0,99.323 0,64C0,28.677 39.509,0 88.173,0L167.827,0C216.491,0 256,28.677 256,64Z" style="fill:rgb(50,40,36);"/>
        </g>
    </g>
</svg>
